<?xml version="1.0" encoding="UTF-8"?>
<svg id="Layer_2" data-name="Layer 2" xmlns="http://www.w3.org/2000/svg" viewBox="0 0 627.22 531.34">
  <defs>
    <style>
      .cls-1 {
        fill: #fff;
      }
    </style>
  </defs>
  <g id="Layer_1-2" data-name="Layer 1">
    <g>
      <path class="cls-1" d="M627.22,0v531.34H0V0h627.22ZM429.33,26.68c-17.26-15.05-29.65-23.97-53.98-23.56-50.85.87-91.72,60.58-67.1,107.72,1.85,3.55,19.98,23.05,18.3,24.47l-243.92,1.99c-55.09,9.89-69.19,79.17-34.88,118.44-52.1,23.96-57.84,104.23-8.56,133.95,7.4,4.46,15.89,5.92,22.49,11.29-34.69,44.13-14.16,119.22,46.78,124.47l386.34-4.08c65.9-4.51,123-58.01,128.43-124.38,2.97-36.32,2.95-137.36-7.91-171.14-12.76-39.7-31.73-48.69-58.82-74.55-42.56-40.63-83.02-86.11-127.16-124.61Z"/>
      <path d="M429.33,26.68c44.14,38.5,84.6,83.99,127.16,124.61,27.09,25.86,46.05,34.85,58.82,74.55,10.86,33.78,10.88,134.82,7.91,171.14-5.43,66.38-62.53,119.87-128.43,124.38l-386.34,4.08c-60.93-5.24-81.47-80.34-46.78-124.47-6.59-5.37-15.09-6.82-22.49-11.29-49.28-29.72-43.55-109.99,8.56-133.95-34.31-39.27-20.21-108.55,34.88-118.44l243.92-1.99c1.68-1.42-16.45-20.92-18.3-24.47-24.62-47.14,16.25-106.85,67.1-107.72,24.33-.41,36.73,8.51,53.98,23.56ZM459.2,88.37c-13.91-13.38-46.21-48.69-60.36-56.14-44.28-23.3-95.36,33.07-63.97,75.96,10.57,14.44,48.6,31.65,29.52,50.01l-271.38,1.82c-53.97,4.64-55.15,86.68,1.48,90.8,54.14,3.94,114.41-6.59,169.43-2.18,14.96,3.35,14.09,21.03-1.7,23.22-59.64,8.25-134.67-5.61-195.35,2.93-49.82,7-51.59,96.45,3.73,101.4,60.99,5.46,129.74-3.59,191.27-2.11,15.49.79,18.76,21.03,1.84,23.8l-155.2,2.1c-57.35,10.69-53.1,101.14,7.06,102.57,124.29-7.17,255.65,4.07,379.32-4.98,46.25-3.38,90.07-38.35,101.48-83.65,6.59-26.16,5.73-139.85.08-167.26-9.03-43.85-27.89-51.99-56.6-78.76-27.59-25.72-53.51-53.46-80.65-79.55Z"/>
      <path class="cls-1" d="M459.2,88.37c27.14,26.08,53.06,53.83,80.65,79.55,28.71,26.76,47.57,34.91,56.6,78.76,5.65,27.41,6.5,141.1-.08,167.26-11.41,45.31-55.22,80.27-101.48,83.65-123.66,9.05-255.02-2.19-379.32,4.98-60.16-1.43-64.41-91.88-7.06-102.57l155.2-2.1c16.92-2.77,13.65-23.01-1.84-23.8-61.54-1.49-130.29,7.56-191.27,2.11-55.32-4.95-53.55-94.39-3.73-101.4,60.68-8.53,135.71,5.33,195.35-2.93,15.79-2.19,16.66-19.86,1.7-23.22-55.02-4.42-115.29,6.12-169.43,2.18-56.63-4.12-55.46-86.16-1.48-90.8l271.38-1.82c19.07-18.36-18.96-35.58-29.52-50.01-31.4-42.9,19.69-99.26,63.97-75.96,14.15,7.45,46.45,42.76,60.36,56.14Z"/>
    </g>
  </g>
</svg>